<svg id="_ÎÓÈ_1" data-name="—ÎÓÈ_1" xmlns="http://www.w3.org/2000/svg" viewBox="0 0 579.56 416.67"><defs></defs><rect class="cls-1" x="85.7" y="321.3" width="408.15" height="38.2"></rect><rect class="cls-1" x="167.69" y="327.23" width="244.17" height="38.01"></rect><path class="cls-2" d="M30.54,234.18v165.3a16.58,16.58,0,0,0,16.59,16.58H87.08a16.58,16.58,0,0,0,16.59-16.58V341.62Z"></path><path class="cls-2" d="M549,234.18v165.3a16.59,16.59,0,0,1-16.59,16.59H492.47a16.58,16.58,0,0,1-16.58-16.59V341.62Z"></path><path class="cls-3" d="M289.78,341.62h235a14,14,0,0,0,13.71-11.23c3.61-18.27,5.5-33.41,6.59-44.35,1.8-18.18,1.66-28,3.89-51.86,1.69-18.09,3.66-32.76,5-42.19a142.55,142.55,0,0,0-8.44-17.62c-2.37-4.2-4.81-8-7.19-11.41a64.92,64.92,0,0,0-8.19-18.86A64.2,64.2,0,0,0,519.06,131a335.38,335.38,0,0,0-51.2-106,44.34,44.34,0,0,0-32-18.19q-12.5-1.14-25.28-2.09c-42.2-3.11-82.55-4-120.84-4s-78.65.93-120.85,4q-12.78.94-25.28,2.08a44.4,44.4,0,0,0-32,18.2,335.38,335.38,0,0,0-51.2,106,64.53,64.53,0,0,0-19.35,32c-2.39,3.41-4.82,7.21-7.2,11.41A144,144,0,0,0,25.5,192c1.38,9.43,3.35,24.1,5,42.19,2.23,23.88,2.1,33.68,3.9,51.86,1.08,10.94,3,26.08,6.58,44.35a14,14,0,0,0,13.71,11.23Z"></path><path class="cls-4" d="M122.57,308.11l-.31.55a12.45,12.45,0,0,1-10.3,6.19l-51.91,1.92a12.42,12.42,0,0,1-12.18-16.55l4.07-11.52a12.43,12.43,0,0,1,14-8.08l48.16,9.05A12.42,12.42,0,0,1,122.57,308.11Z"></path><path class="cls-4" d="M290.16,267A492.64,492.64,0,0,0,407.7,255.37q8.83-2,17.2-4.19c7.26-1.91,10.23-9.54,5.8-14.92a117.32,117.32,0,0,0-12.65-13.12l-.34-.31c-14.94-13.2-35.25-20.67-56.46-21.24l-4.7-.11c-22.91-.53-45.06,0-66.39,0s-43.49-.53-66.4,0l-4.7.11c-21.21.57-41.52,8-56.46,21.24l-.34.31a118.23,118.23,0,0,0-12.65,13.12c-4.43,5.38-1.45,13,5.8,14.92q8.35,2.2,17.2,4.19A492.67,492.67,0,0,0,290.16,267Z"></path><path class="cls-4" d="M289.78,317.83q60.63,0,121.24-2.73a5.8,5.8,0,0,0,4.79-8.66l-5.23-8.54a5.32,5.32,0,0,0-4.79-2.51q-58,2.55-116,2.61t-116-2.61a5.34,5.34,0,0,0-4.8,2.51l-5.23,8.54a5.81,5.81,0,0,0,4.79,8.66Q229.13,317.83,289.78,317.83Z"></path><path class="cls-5" d="M289.78,317.83q60.63,0,121.24-2.73a5.8,5.8,0,0,0,4.79-8.66l-5.23-8.54a5.32,5.32,0,0,0-4.79-2.51q-58,2.55-116,2.61t-116-2.61a5.34,5.34,0,0,0-4.8,2.51l-5.23,8.54a5.81,5.81,0,0,0,4.79,8.66Q229.13,317.83,289.78,317.83Z"></path><path class="cls-4" d="M457,308.11l.32.55a12.43,12.43,0,0,0,10.3,6.19l51.9,1.92a12.42,12.42,0,0,0,12.18-16.55l-4.06-11.52a12.43,12.43,0,0,0-14-8.08l-48.16,9.05A12.43,12.43,0,0,0,457,308.11Z"></path><line class="cls-6" x1="50.37" y1="184.75" x2="28.06" y2="211.12"></line><line class="cls-6" x1="47.15" y1="169.91" x2="41.14" y2="162.96"></line><path class="cls-5" d="M60.49,131a49.55,49.55,0,0,0,7.08,21.59c5.15,8.31,11.75,13.15,16.5,16.62a76.36,76.36,0,0,0,9.61,6"></path><path class="cls-5" d="M65.7,110.85a137.46,137.46,0,0,0,9.93,10.92c18.86,18.61,34.57,23.11,51.61,34.74,8.82,6,21.15,16.09,33.38,33"></path><path class="cls-5" d="M75.63,121.77a244.83,244.83,0,0,1,34.48-94.63"></path><path class="cls-4" d="M289.78,109.36q59.22.47,120.86,2.48,42.19,1.39,83.21,3.48a373.57,373.57,0,0,0-18.18-54c-4.43-10.45-9.09-20.13-13.79-29a15.46,15.46,0,0,0-13.13-8.16q-27.69-1-56-1.54c-35-.69-69.37-2.11-102.93-2.11s-67.89,1.42-102.94,2.11q-28.35.57-56,1.54a15.46,15.46,0,0,0-13.14,8.16c-4.69,8.88-9.35,18.56-13.79,29a374.8,374.8,0,0,0-18.18,54q41-2.07,83.22-3.48Q230.54,109.8,289.78,109.36Z"></path><path class="cls-7" d="M51.52,168.5c13.08,1.75,35.3,5.27,40.26,6.06a6.5,6.5,0,0,1,1.9.61l53.24,26.74a5.26,5.26,0,0,1-.79,9.93l-10.75,3.31a5.78,5.78,0,0,1-.69.17c-5.85,1.08-42.79,7-70.9-16A68.82,68.82,0,0,1,45.3,176C43.39,172.1,46.87,167.87,51.52,168.5Z"></path><path class="cls-7" d="M528,168.5c-13.09,1.75-35.3,5.27-40.27,6.06a6.7,6.7,0,0,0-1.9.61l-53.23,26.74a5.26,5.26,0,0,0,.78,9.93l10.76,3.31a5.35,5.35,0,0,0,.69.17c5.84,1.08,42.78,7,70.9-16A68.9,68.9,0,0,0,534.25,176C536.17,172.1,532.69,167.87,528,168.5Z"></path><path class="cls-5" d="M448.39,194.24q-26.82-3.44-55.69-5.78c-36.5-2.92-71-4-103.3-3.66h.76c-32.27-.29-66.8.74-103.3,3.66q-28.86,2.29-55.69,5.78"></path><ellipse class="cls-7" cx="68.75" cy="298.69" rx="11.55" ry="11.34"></ellipse><path class="cls-7" d="M499.25,298.69A11.56,11.56,0,1,1,510.81,310,11.46,11.46,0,0,1,499.25,298.69Z"></path><line class="cls-6" x1="529.18" y1="184.75" x2="551.49" y2="211.12"></line><line class="cls-6" x1="532.4" y1="169.91" x2="538.42" y2="162.96"></line><path class="cls-5" d="M519.06,131A49.38,49.38,0,0,1,512,152.54c-5.15,8.31-11.76,13.15-16.5,16.62a76.36,76.36,0,0,1-9.62,6"></path><path class="cls-5" d="M513.85,110.85a136.92,136.92,0,0,1-9.92,10.92c-18.87,18.61-34.57,23.11-51.62,34.74-8.81,6-21.14,16.09-33.37,33"></path><path class="cls-5" d="M503.93,121.77a244.83,244.83,0,0,0-34.48-94.63"></path><path class="cls-4" d="M55.05,109c0-9.77-12.24-17.68-27.35-17.68S.34,99.22.34,109s12.25,17.68,27.36,17.68S55.05,118.75,55.05,109Z"></path><path class="cls-8" d="M31.23,126.67q3.61,7.5,7.4,15.12,2.63,5.27,5.24,10.44l11.92-17.37L49.1,121.08a16.7,16.7,0,0,0-10.94.38A16.47,16.47,0,0,0,31.23,126.67Z"></path><ellipse class="cls-4" cx="551.86" cy="108.99" rx="27.36" ry="17.68"></ellipse><path class="cls-8" d="M548.32,126.67q-3.62,7.5-7.4,15.12-2.61,5.27-5.24,10.44l-11.91-17.37,6.69-13.78a16.7,16.7,0,0,1,10.94.38A16.35,16.35,0,0,1,548.32,126.67Z"></path></svg>