<svg id="_ÎÓÈ_1" data-name="—ÎÓÈ_1" xmlns="http://www.w3.org/2000/svg" viewBox="0 0 865.28 377.82"><defs></defs><path class="cls-1" d="M864.68,188.91c0,23-2.2,74-2.2,74a35.32,35.32,0,0,1-1.91,10.18h0a119.81,119.81,0,0,1-94.23,79.27l-42.94,6.91c-93.07-1.64-186.14-.16-279.18-1.6-113.8-1.77-204.94,3.05-204.94,3.05l-112.45-1.39A132.89,132.89,0,0,1,8.75,284.11h0A82.38,82.38,0,0,1,.6,248.4v-119A82.46,82.46,0,0,1,8.75,93.7h0A132.88,132.88,0,0,1,126.83,18.48l112.45-1.39s91.14,4.82,204.94,3.05c93-1.44,186.11,0,279.18-1.61l42.94,6.92a119.79,119.79,0,0,1,94.23,79.27h0a35.32,35.32,0,0,1,1.91,10.18S864.68,165.92,864.68,188.91Z"></path><path class="cls-2" d="M88.36,50.36a200.82,200.82,0,0,1,21.22-4.5c13.61-2.13,23.58-2.25,43.39-2.49,39.15-.49,37.57-.48,38.82-.48,14.36,0,33.84-.06,57.26.06"></path><line class="cls-2" x1="438.16" y1="40.23" x2="475.3" y2="40.31"></line><path class="cls-2" d="M448.79,20.07a38.59,38.59,0,0,1,7.94,20.16l15.65,28.21"></path><line class="cls-2" x1="458.22" y1="68.46" x2="486.54" y2="68.41"></line><path class="cls-2" d="M615.58,42.54l16.35.5c.51-.26,12.26-6.53,12.15-17a14.92,14.92,0,0,0-1.69-6.69"></path><line class="cls-2" x1="589.01" y1="64.75" x2="602.09" y2="63.91"></line><path class="cls-3" d="M281.6,32.69c3.21,5.43,13.19,7.35,19.29,3.86,2.29-1.31,3.35-3,8.68-17,5.68-15,5.9-16.81,4.82-18-2.89-3.18-13,.6-19.61,5.47C287,12.75,277.13,25.14,281.6,32.69Z"></path><path class="cls-2" d="M16.35,108.86C27.74,101.43,88,62.66,138.83,56.47,157.34,54.21,180,53.9,180,53.9A423,423,0,0,1,228.19,56"></path><path class="cls-2" d="M765.72,75c49.34-4.17,67.3-.92,73.89,3.36L852.81,87h0"></path><path class="cls-2" d="M354.2,77.12c42.87,3.2,88.16,5.35,135.66,6,56.19.8,109.4-.55,159.29-3.38"></path><path class="cls-2" d="M435.23,24c-.12-1.81-9.05-3.39-19.94-3.52s-19.6,1.22-19.48,3,9.06,3.39,19.94,3.52S435.36,25.83,435.23,24Z"></path><path class="cls-2" d="M622,23.32c-.13-1.81-9-3.39-19.94-3.53s-19.6,1.22-19.48,3,9.06,3.39,19.94,3.53S622.13,25.13,622,23.32Z"></path><line class="cls-2" x1="622" y1="19.32" x2="729.05" y2="19.32"></line><line class="cls-2" x1="114.48" y1="24.38" x2="280.48" y2="18.73"></line><line class="cls-2" x1="768.73" y1="32.04" x2="642.39" y2="19.32"></line><path class="cls-3" d="M855,106.8q-.4,7.33-.82,14.66A135,135,0,0,0,768.73,32,106.81,106.81,0,0,1,855,106.8Z"></path><path class="cls-3" d="M855,271l-.82-14.66a135,135,0,0,1-85.43,89.42A106.81,106.81,0,0,0,855,271Z"></path><path class="cls-4" d="M15.86,99.1c13.59-9.77,28-19.69,43.18-29.61q15.29-10,29.93-18.9,12.77-13.1,25.51-26.21A130.07,130.07,0,0,0,68.21,42.62C37.26,62.12,21.32,89,15.86,99.1Z"></path><path class="cls-4" d="M15.86,278.71Q36.24,293.38,59,308.33q15.29,10,29.93,18.9,12.77,13.09,25.51,26.2A129.81,129.81,0,0,1,68.21,335.2C37.26,315.69,21.32,288.83,15.86,278.71Z"></path><path class="cls-2" d="M88.36,327.46a200.82,200.82,0,0,0,21.22,4.5c13.61,2.13,23.58,2.25,43.39,2.49,39.15.48,37.57.48,38.82.48,14.36,0,33.84.06,57.26-.06"></path><line class="cls-2" x1="438.16" y1="337.59" x2="475.3" y2="337.5"></line><path class="cls-2" d="M448.79,357.74a38.5,38.5,0,0,0,7.94-20.15l15.65-28.21"></path><line class="cls-2" x1="458.22" y1="309.35" x2="486.54" y2="309.41"></line><path class="cls-2" d="M615.58,335.28l16.35-.5c.51.26,12.26,6.53,12.15,17a14.85,14.85,0,0,1-1.69,6.68"></path><line class="cls-2" x1="589.01" y1="313.07" x2="602.09" y2="313.91"></line><path class="cls-3" d="M281.6,345.12c3.21-5.42,13.19-7.34,19.29-3.85,2.29,1.31,3.35,3,8.68,17,5.68,15,5.9,16.82,4.82,18-2.89,3.19-13-.6-19.61-5.46C287,365.07,277.13,352.68,281.6,345.12Z"></path><path class="cls-2" d="M16.35,269c11.39,7.44,71.69,46.2,122.48,52.4,18.51,2.26,41.14,2.57,41.14,2.57a425.3,425.3,0,0,0,48.22-2.07"></path><path class="cls-2" d="M11.53,289.55l4.68-11.29c-1.35-29.46-4-58.9-4-88.39,0-30.13,2.69-60.21,4-90.31L11.53,88.27"></path><path class="cls-5" d="M438.16,40.23Q341,40.26,248.45,43a809.94,809.94,0,0,0,85.83,17.52c18.25,2.7,55.06,7.51,123.94,8C453.6,61.83,443.43,47.3,438.16,40.23Z"></path><path class="cls-5" d="M615.58,42.54q-68.87-1.82-140.28-2.23l11.24,28.1q7.32-.07,15.06-.21c25.51-.45,54.81-1.46,87.41-3.45Z"></path><path class="cls-5" d="M681.15,52.77l-6.1-2A166.07,166.07,0,0,0,631.93,43L602.09,63.91c24.52-1.66,50.78-3.87,78.6-6.81A2.23,2.23,0,0,0,681.15,52.77Z"></path><path class="cls-5" d="M353.08,188.91c-.05,20.93.57,50.38,2.09,73.45q1.13,17.14,2.78,33.4a4.53,4.53,0,0,1-3.75,4.93L233.43,321.53a21.44,21.44,0,0,1-21.21-8.71l-.1-.15c-10.63-15.22-12.86-30.64-14.55-46.81-1.94-18.63-3.58-49.47-3.61-77s1.67-58.33,3.62-76.95c1.68-16.17,3.91-31.59,14.54-46.81l.1-.15a21.47,21.47,0,0,1,21.21-8.72L354.2,77.12A4.54,4.54,0,0,1,358,82.06q-1.63,16.25-2.78,33.4C353.65,138.53,353,168,353.08,188.91Z"></path><path class="cls-5" d="M438.16,337.59q-97.17,0-189.71-2.74a807.41,807.41,0,0,1,85.83-17.52c18.25-2.7,55.06-7.52,123.94-8C453.6,316,443.43,330.52,438.16,337.59Z"></path><path class="cls-5" d="M615.58,335.28q-68.87,1.82-140.28,2.22l11.24-28.09q7.32.07,15.06.21c25.51.45,54.81,1.46,87.41,3.45Z"></path><path class="cls-5" d="M681.15,325.05l-6.1,1.95a166.08,166.08,0,0,1-43.12,7.78l-29.84-20.87c24.52,1.66,50.78,3.87,78.6,6.81A2.23,2.23,0,0,1,681.15,325.05Z"></path><path class="cls-5" d="M653.58,188.91c0,21-.09,50.32-1.54,73.21q-1.17,18.44-2.89,35.92l114,4.83a26.52,26.52,0,0,0,20.09-8c2.94-3,5.93-6.21,8.93-9.64,1.07-1.24,2.12-2.46,3.15-3.68a67,67,0,0,0,15.73-43V139.28a67,67,0,0,0-15.73-43q-1.54-1.83-3.15-3.68c-3-3.43-6-6.64-8.93-9.65a26.51,26.51,0,0,0-20.09-8l-114,4.82q1.71,17.49,2.89,35.93C653.49,138.59,653.58,168,653.58,188.91Z"></path><path class="cls-6" d="M438.16,40.23Q341,40.26,248.45,43a809.94,809.94,0,0,0,85.83,17.52c18.25,2.7,55.06,7.51,123.94,8C453.6,61.83,443.43,47.3,438.16,40.23Z"></path><path class="cls-6" d="M615.58,42.54q-68.87-1.82-140.28-2.23l11.24,28.1q7.32-.07,15.06-.21c25.51-.45,54.81-1.46,87.41-3.45Z"></path><path class="cls-6" d="M681.15,52.77l-6.1-2A166.07,166.07,0,0,0,631.93,43L602.09,63.91c24.52-1.66,50.78-3.87,78.6-6.81A2.23,2.23,0,0,0,681.15,52.77Z"></path><path class="cls-6" d="M353.08,188.91c-.05,20.93.57,50.38,2.09,73.45q1.13,17.14,2.78,33.4a4.53,4.53,0,0,1-3.75,4.93L233.43,321.53a21.44,21.44,0,0,1-21.21-8.71l-.1-.15c-10.63-15.22-12.86-30.64-14.55-46.81-1.94-18.63-3.58-49.47-3.61-77s1.67-58.33,3.62-76.95c1.68-16.17,3.91-31.59,14.54-46.81l.1-.15a21.47,21.47,0,0,1,21.21-8.72L354.2,77.12A4.54,4.54,0,0,1,358,82.06q-1.63,16.25-2.78,33.4C353.65,138.53,353,168,353.08,188.91Z"></path><path class="cls-6" d="M438.16,337.59q-97.17,0-189.71-2.74a807.41,807.41,0,0,1,85.83-17.52c18.25-2.7,55.06-7.52,123.94-8C453.6,316,443.43,330.52,438.16,337.59Z"></path><path class="cls-6" d="M615.58,335.28q-68.87,1.82-140.28,2.22l11.24-28.09q7.32.07,15.06.21c25.51.45,54.81,1.46,87.41,3.45Z"></path><path class="cls-6" d="M681.15,325.05l-6.1,1.95a166.08,166.08,0,0,1-43.12,7.78l-29.84-20.87c24.52,1.66,50.78,3.87,78.6,6.81A2.23,2.23,0,0,1,681.15,325.05Z"></path><path class="cls-6" d="M653.58,188.91c0,21-.09,50.32-1.54,73.21q-1.17,18.44-2.89,35.92l114,4.83a26.52,26.52,0,0,0,20.09-8c2.94-3,5.93-6.21,8.93-9.64,1.07-1.24,2.12-2.46,3.15-3.68a67,67,0,0,0,15.73-43V139.28a67,67,0,0,0-15.73-43q-1.54-1.83-3.15-3.68c-3-3.43-6-6.64-8.93-9.65a26.51,26.51,0,0,0-20.09-8l-114,4.82q1.71,17.49,2.89,35.93C653.49,138.59,653.58,168,653.58,188.91Z"></path><path class="cls-2" d="M765.72,302.84c49.34,4.18,67.3.93,73.89-3.35l13.2-8.67h0"></path><path class="cls-2" d="M354.2,300.69c42.87-3.2,88.16-5.35,135.66-6,56.19-.8,109.4.55,159.29,3.37"></path><path class="cls-2" d="M435.23,353.8c-.12,1.81-9.05,3.38-19.94,3.52s-19.6-1.22-19.48-3,9.06-3.39,19.94-3.53S435.36,352,435.23,353.8Z"></path><path class="cls-2" d="M622,354.5c-.13,1.81-9,3.39-19.94,3.53s-19.6-1.23-19.48-3,9.06-3.38,19.94-3.52S622.13,352.69,622,354.5Z"></path><line class="cls-2" x1="622" y1="358.49" x2="729.05" y2="358.49"></line><line class="cls-2" x1="114.48" y1="353.43" x2="280.48" y2="359.09"></line><line class="cls-2" x1="768.73" y1="345.78" x2="642.39" y2="358.49"></line><polyline class="cls-2" points="854.16 256.36 854.98 188.91 854.16 121.46"></polyline></svg>