<svg id="_ÎÓÈ_1" data-name="—ÎÓÈ_1" xmlns="http://www.w3.org/2000/svg" viewBox="0 0 860.05 270.51"><defs></defs><path class="cls-1" d="M32.49,225.83l73.92,14.41,618.24-.75,35.14-23.3c-1-47.62-39.93-85.64-85.5-86-48-.38-88.75,41.12-86.8,91.29l-340.1.64c2.45-50.93-36.44-93.5-82.94-96.43-50.18-3.17-96.51,40.61-94.51,95.79Z"></path><path class="cls-2" d="M857.63,170.43l-3.49-4.87.41-22.27a12,12,0,0,0-2-6.91l-13.34-20-58.5-6.1L764.94,97.73,840.16,85q2.65-5.06,5.3-10.13l-43.55-8.35c-2.86.38-8.68,1-8.68,1q-33.93-8.85-69.12-19-39.45-11.37-76.72-23.31l2.06-8A728.76,728.76,0,0,0,357,13.67l4.83,6.26A518.66,518.66,0,0,0,244.91,73.76a53.08,53.08,0,0,1-21.57,7.54c-4.63.56-9.26,1.24-13.89,1l-5.29-2.57-6-2.9c-31.58.79-73.73,3.56-121.83,20.25A402.51,402.51,0,0,0,3.56,130.84,108,108,0,0,0,.67,148.2c-.64,7.61,3.6,55,4.34,60.27.21,1.53.44,3,.68,4.51a13,13,0,0,0,11,10.81q7.79,1.08,15.76,2c18,2.17,52.08,4.82,52.08,4.82-5.65-37.28,11.34-72.55,41-87.76,2-1,32.52-16,64.13-1.44,31.35,14.48,50,51.75,43.88,91.61l371.29,1h0v0s-8.31-63,37.14-86.78c32.27-16.86,73.31-4.33,90.81,17.68,17.18,21.62,20,62.82,20.09,63.33,5.67-.17,36.81-1.18,60.28-4.5a61.11,61.11,0,0,0,19-5.46A57.28,57.28,0,0,0,858,193.12a12.68,12.68,0,0,0,1.44-5.85V176.11A9.8,9.8,0,0,0,857.63,170.43Z"></path><path class="cls-3" d="M247.39,87.76,656.6,74a33,33,0,0,0,20.8-8.31l7.21-6.42a5.51,5.51,0,0,0-1.88-9.35A641.7,641.7,0,0,0,590.06,26c-51.73-9.28-126.48-22.7-214.09.65C346,34.68,298.86,51.15,247.39,87.76Z"></path><path class="cls-4" d="M16.13,175.23a14.15,14.15,0,0,0,2.38-10.34A73.44,73.44,0,0,0,10,139.56a58.75,58.75,0,0,0-6.3-9,241.35,241.35,0,0,0-1.41,37.53c.25,6.31.75,12.32,1.42,18a35,35,0,0,0,8.7-6.53A40.5,40.5,0,0,0,16.13,175.23Z"></path><path class="cls-4" d="M23.13,189.27l26.05-6.15a8.27,8.27,0,0,1,9.8,5.72l2,6.51a8.42,8.42,0,0,1-7.23,10.89l-27.14,2.3a8.31,8.31,0,0,1-8.53-5.65l-.87-2.56,0-.09A8.45,8.45,0,0,1,23.13,189.27Z"></path><path class="cls-5" d="M54.43,194.44c0-4.59-1.59-8.31-3.55-8.31s-3.54,3.72-3.54,8.31,1.58,8.32,3.54,8.32S54.43,199,54.43,194.44Z"></path><path class="cls-4" d="M223.34,81.3a53.08,53.08,0,0,0,21.57-7.54A518.66,518.66,0,0,1,361.83,19.93L357,13.67c-22.85,7.68-47.07,16.74-72.32,27.48-29.41,12.5-56.26,25.59-80.52,38.58l5.29,2.57C214.08,82.54,218.71,81.86,223.34,81.3Z"></path><path class="cls-4" d="M460.67,19.49A377.32,377.32,0,0,0,377.38,32,389.73,389.73,0,0,0,266.11,81.66l176.73-5.93C447.75,60.4,456.13,34.15,460.67,19.49Z"></path><path class="cls-4" d="M590.31,31.65l-1.21-.23c-27.9-5-62.07-11.12-101.29-12.11l-4.37,55.05,132-4.43Z"></path><path class="cls-4" d="M607.49,35l26.07,34.31,22.85-.77a27.52,27.52,0,0,0,17.36-6.93l7.2-6.5A633.84,633.84,0,0,0,607.49,35Z"></path><path class="cls-4" d="M724.11,48.55q35.17,10.13,69.12,19s5.82-.58,8.68-1c-25.19-9.71-52-19.23-80.37-28.29q-37.31-11.91-72.09-21l-2.06,8Q684.65,37.15,724.11,48.55Z"></path><path class="cls-3" d="M76,108.85A435.83,435.83,0,0,1,141.3,94.19c21.63-3.12,39.67-4,62.37-5.14,18.08-.9,33.13-1.19,43.72-1.29"></path><path class="cls-3" d="M67.21,129.39l37.29,29.74"></path><path class="cls-3" d="M435.21,102c0-1.81-8.76-3.14-19.49-3s-19.41,1.79-19.38,3.61,8.76,3.14,19.49,3S435.24,103.81,435.21,102Z"></path><path class="cls-3" d="M635.94,98.69c0-1.81-8.75-3.14-19.48-3s-19.41,1.79-19.38,3.6,8.75,3.15,19.49,3S636,100.51,635.94,98.69Z"></path><path class="cls-3" d="M474.17,13.7l-13.5,66.9c-2.52,8.84-4.81,18.2-6.75,28.06a355.62,355.62,0,0,0-4.34,107.53"></path><path class="cls-3" d="M261.53,87.76a211,211,0,0,0-9,34.08c-6.86,38.93-1.38,72.3,4.5,94.35H577.85c22.09-31.65,40.18-57.06,56.9-79.57,7.32-9.85,18.46-24.65,15.1-41.46-1.88-9.46-7.71-16.3-12.22-20.5L602.44,28.45"></path><path class="cls-6" d="M76.58,108.82a1.82,1.82,0,0,0-.57,0,172.71,172.71,0,0,0-59.89,26,1.68,1.68,0,0,0,1.1,3.06c7.42-.73,15.12-1.73,23.07-3a357.87,357.87,0,0,0,69.38-18.8,1.67,1.67,0,0,0-.41-3.22Z"></path><path class="cls-6" d="M780.69,110.27l58.5,6.1a87.92,87.92,0,0,0,1-31.34l-75.22,12.7Z"></path><path class="cls-5" d="M76.58,108.82a1.82,1.82,0,0,0-.57,0,172.71,172.71,0,0,0-59.89,26,1.68,1.68,0,0,0,1.1,3.06c7.42-.73,15.12-1.73,23.07-3a357.87,357.87,0,0,0,69.38-18.8,1.67,1.67,0,0,0-.41-3.22Z"></path><path class="cls-4" d="M780.69,110.27l58.5,6.1a87.92,87.92,0,0,0,1-31.34l-75.22,12.7Z"></path><path class="cls-7" d="M76.58,108.82a1.82,1.82,0,0,0-.57,0,172.71,172.71,0,0,0-59.89,26,1.68,1.68,0,0,0,1.1,3.06c7.42-.73,15.12-1.73,23.07-3a357.87,357.87,0,0,0,69.38-18.8,1.67,1.67,0,0,0-.41-3.22Z"></path><path class="cls-7" d="M780.69,110.27l58.5,6.1a87.92,87.92,0,0,0,1-31.34l-75.22,12.7Z"></path><ellipse class="cls-8" cx="676.9" cy="209.29" rx="62.11" ry="60.62"></ellipse><ellipse class="cls-5" cx="676.9" cy="209.29" rx="47.16" ry="46.03"></ellipse><path class="cls-9" d="M681.82,208.91a4.93,4.93,0,1,1-4.92-4.82A4.87,4.87,0,0,1,681.82,208.91Z"></path><path class="cls-10" d="M676.9,250.89a28.22,28.22,0,0,0,5.27-.35q1-.16,2-.39a3.47,3.47,0,0,0,1.94-1.23l2.59-3.27a3.46,3.46,0,0,0,0-4.3l-9-11.36a3.47,3.47,0,0,0-5.41,0l-9.05,11.36a3.46,3.46,0,0,0,0,4.3l2.59,3.27a3.47,3.47,0,0,0,1.94,1.23q.92.22,2,.39A28.27,28.27,0,0,0,676.9,250.89Z"></path><path class="cls-10" d="M716.52,222a28.32,28.32,0,0,0,1.28-5.14c.11-.68.18-1.34.23-2a3.5,3.5,0,0,0-.57-2.23l-2.32-3.47a3.46,3.46,0,0,0-4.1-1.31l-13.58,5.13a3.46,3.46,0,0,0-1.66,5.15l8,12.09a3.46,3.46,0,0,0,4.09,1.33l3.91-1.47a3.55,3.55,0,0,0,1.77-1.47q.48-.81,1-1.74A27.82,27.82,0,0,0,716.52,222Z"></path><path class="cls-10" d="M702.06,175.87a27.43,27.43,0,0,0-4.43-2.89c-.62-.32-1.21-.61-1.79-.86a3.41,3.41,0,0,0-2.29-.18l-4,1.06a3.45,3.45,0,0,0-2.57,3.44l.42,14.52a3.45,3.45,0,0,0,4.32,3.24l14.06-3.65a3.47,3.47,0,0,0,2.58-3.44l-.11-4.17a3.53,3.53,0,0,0-.81-2.15c-.41-.48-.85-1-1.33-1.47A27.22,27.22,0,0,0,702.06,175.87Z"></path><path class="cls-10" d="M651.88,176a28.51,28.51,0,0,0-4,3.46c-.47.5-.91,1-1.32,1.48a3.51,3.51,0,0,0-.81,2.15l-.1,4.17a3.45,3.45,0,0,0,2.59,3.43l14.06,3.63a3.46,3.46,0,0,0,4.32-3.25l.4-14.52a3.46,3.46,0,0,0-2.58-3.43l-4-1.06a3.5,3.5,0,0,0-2.3.19c-.57.25-1.17.54-1.78.86A28.12,28.12,0,0,0,651.88,176Z"></path><path class="cls-10" d="M637.1,222.07a27.17,27.17,0,0,0,2,4.91c.31.62.64,1.2,1,1.73a3.52,3.52,0,0,0,1.77,1.48l3.91,1.46a3.46,3.46,0,0,0,4.09-1.33l8-12.11a3.45,3.45,0,0,0-1.66-5.14L642.55,208a3.46,3.46,0,0,0-4.09,1.32l-2.31,3.47a3.45,3.45,0,0,0-.57,2.23c0,.63.12,1.28.23,2A27.55,27.55,0,0,0,637.1,222.07Z"></path><ellipse class="cls-8" cx="159.93" cy="209.29" rx="62.11" ry="60.62"></ellipse><ellipse class="cls-5" cx="159.93" cy="209.29" rx="47.16" ry="46.03"></ellipse><path class="cls-9" d="M164.86,208.91a4.93,4.93,0,1,1-4.93-4.82A4.88,4.88,0,0,1,164.86,208.91Z"></path><path class="cls-10" d="M159.93,250.89a28.37,28.37,0,0,0,5.28-.35c.68-.11,1.33-.24,1.94-.39a3.5,3.5,0,0,0,1.95-1.23l2.59-3.27a3.46,3.46,0,0,0,0-4.3L162.63,230a3.46,3.46,0,0,0-5.4,0l-9,11.36a3.46,3.46,0,0,0,0,4.3l2.59,3.27a3.5,3.5,0,0,0,2,1.23c.61.15,1.26.28,1.94.39A28.37,28.37,0,0,0,159.93,250.89Z"></path><path class="cls-10" d="M199.56,222a28.32,28.32,0,0,0,1.28-5.14c.1-.68.18-1.34.23-2a3.51,3.51,0,0,0-.58-2.23l-2.32-3.47a3.44,3.44,0,0,0-4.09-1.31l-13.59,5.13a3.46,3.46,0,0,0-1.65,5.15l8,12.09a3.46,3.46,0,0,0,4.09,1.33l3.91-1.47a3.53,3.53,0,0,0,1.76-1.47q.5-.81,1-1.74A27.93,27.93,0,0,0,199.56,222Z"></path><path class="cls-10" d="M185.1,175.87a27.56,27.56,0,0,0-4.44-2.89c-.61-.32-1.21-.61-1.78-.86a3.44,3.44,0,0,0-2.3-.18l-4,1.06a3.46,3.46,0,0,0-2.58,3.44l.42,14.52a3.46,3.46,0,0,0,4.33,3.24l14.05-3.65a3.47,3.47,0,0,0,2.59-3.44l-.11-4.17a3.48,3.48,0,0,0-.82-2.15c-.4-.48-.84-1-1.32-1.47A27.74,27.74,0,0,0,185.1,175.87Z"></path><path class="cls-10" d="M134.92,176a28,28,0,0,0-4,3.46c-.48.5-.92,1-1.32,1.48a3.46,3.46,0,0,0-.82,2.15l-.1,4.17a3.46,3.46,0,0,0,2.59,3.43l14.06,3.63a3.46,3.46,0,0,0,4.32-3.25l.4-14.52a3.45,3.45,0,0,0-2.58-3.43l-4-1.06a3.47,3.47,0,0,0-2.29.19c-.58.25-1.17.54-1.78.86A27.66,27.66,0,0,0,134.92,176Z"></path><path class="cls-10" d="M120.13,222.07a28.73,28.73,0,0,0,2,4.91c.32.62.64,1.2,1,1.73a3.48,3.48,0,0,0,1.77,1.48l3.91,1.46a3.45,3.45,0,0,0,4.08-1.33l8-12.11a3.45,3.45,0,0,0-1.66-5.14L125.59,208a3.46,3.46,0,0,0-4.09,1.32l-2.32,3.47a3.52,3.52,0,0,0-.57,2.23c0,.63.13,1.28.23,2A29.21,29.21,0,0,0,120.13,222.07Z"></path><path class="cls-3" d="M718,151.9l23.48-5.14a44.44,44.44,0,0,0,27.57-18.93l11.6-17.56a120.49,120.49,0,0,0,73.86,33"></path><path class="cls-3" d="M110.69,114.14c113.33-8.84,232.73-15,357.7-17.54C571.08,94.54,670,95.1,764.94,97.73"></path><path class="cls-3" d="M749.37,205.13c15.83-.43,29.55-1.19,40.62-1.95,23.47-1.61,30-2.92,36.45-6.52,4.92-2.77,5.47-4.47,15.24-11.52a211.39,211.39,0,0,1,17.77-11.52"></path><path class="cls-3" d="M24.64,129.39c-.67-2.09-5.93-7.07-5.93-7.07"></path><path class="cls-10" d="M292.46,81.31,302.28,88l-12,9.77a6.35,6.35,0,0,1-5.31-1.45A6.22,6.22,0,0,1,283,91.92l9.47-10.61"></path><path class="cls-4" d="M317.28,67.18a50.32,50.32,0,0,0-8.41-.26c-7.19.17-15,.35-17.92,4.91-2.27,3.51-.61,8,1.51,10.62,4.27,5.32,13.5,7,20,4.7Q314.44,77.1,317.28,67.18Z"></path></svg>