<svg id="_ÎÓÈ_1" data-name="—ÎÓÈ_1" xmlns="http://www.w3.org/2000/svg" viewBox="0 0 596.22 414.47"><defs></defs><rect class="cls-1" x="86.45" y="332.62" width="421.84" height="26.8"></rect><path class="cls-2" d="M47,160.52a116.15,116.15,0,0,1,7.68-18c.75-1.4,1.5-2.74,2.27-4L49.1,124.68l-17.87,5.58q3.37,7.34,7.4,15.12C41.4,150.71,44.21,155.74,47,160.52Z"></path><path class="cls-3" d="M55.05,112.58c0-9.77-12.24-17.68-27.35-17.68S.34,102.81.34,112.58s12.25,17.68,27.36,17.68S55.05,122.34,55.05,112.58Z"></path><ellipse class="cls-4" cx="27.7" cy="112.58" rx="21.03" ry="11.35"></ellipse><path class="cls-2" d="M549.22,160.52a116.15,116.15,0,0,0-7.68-18c-.74-1.4-1.5-2.74-2.27-4l7.85-13.81L565,130.26q-3.37,7.34-7.4,15.12Q553.44,153.38,549.22,160.52Z"></path><path class="cls-3" d="M541.17,112.58c0-9.77,12.25-17.68,27.36-17.68s27.35,7.91,27.35,17.68-12.24,17.68-27.35,17.68S541.17,122.34,541.17,112.58Z"></path><ellipse class="cls-4" cx="568.53" cy="112.58" rx="21.03" ry="11.35"></ellipse><path class="cls-5" d="M35.33,232V397.28a16.59,16.59,0,0,0,16.59,16.59h40a16.59,16.59,0,0,0,16.59-16.59V339.43Z"></path><path class="cls-5" d="M560.9,232V397.28a16.59,16.59,0,0,1-16.59,16.59H504.36a16.59,16.59,0,0,1-16.59-16.59V339.43Z"></path><path class="cls-6" d="M298.11,345h232.6a15.77,15.77,0,0,0,15.43-12.55l14.76-70.83v-80.4L550,162.89a116.36,116.36,0,0,0-24.32-43.18A421.57,421.57,0,0,0,476.7,21,33.06,33.06,0,0,0,451.85,6.5q-11.46-.9-23.09-1.68C383.59,1.81,340,.52,298.11.6,256.24.52,212.64,1.81,167.46,4.82q-11.62.78-23.09,1.68A33,33,0,0,0,119.53,21a422.07,422.07,0,0,0-49,98.72,116.12,116.12,0,0,0-24.31,43.18L35.33,181.25v80.4l14.75,70.83A15.78,15.78,0,0,0,65.52,345Z"></path><path class="cls-7" d="M65.6,162.89c-.34,6.33-.61,18.66,2,28.78,0,.19.09.37.14.55A39.52,39.52,0,0,0,106,221.45H298.11"></path><path class="cls-3" d="M298.11,102.34H416.43a306.93,306.93,0,0,0,59.09-5.75l1-.2a388.65,388.65,0,0,0-4-40.2c-1.16-7.62-2.51-14.9-4-21.84q-37.81-2.28-77.67-3.47-47.81-1.39-92.81-1-45-.35-92.8,1Q165.46,32,127.64,34.35c-1.47,6.94-2.81,14.22-4,21.84a383.2,383.2,0,0,0-4,40.2l1,.19a306.17,306.17,0,0,0,59.1,5.76Z"></path><path class="cls-7" d="M530.62,162.89c.35,6.33.61,18.66-2,28.78,0,.19-.1.37-.14.55a39.54,39.54,0,0,1-38.32,29.23H298.11"></path><path class="cls-3" d="M65.1,140.06q.25,11.41.5,22.83l116,8.54,16.06-22.19a170.91,170.91,0,0,0-80.39-18.61A168.25,168.25,0,0,0,65.1,140.06Z"></path><path class="cls-3" d="M531.12,140.06q-.25,11.41-.5,22.83l-115.94,8.54-16.07-22.19A170.92,170.92,0,0,1,479,130.63,168.18,168.18,0,0,1,531.12,140.06Z"></path><path class="cls-3" d="M169.17,299.77l-20.79,14.47a17.52,17.52,0,0,1-10,3.14H98.73a72.66,72.66,0,0,1,25.32-16A74.52,74.52,0,0,1,169.17,299.77Z"></path><path class="cls-3" d="M427.05,299.77l20.79,14.47a17.55,17.55,0,0,0,10,3.14h39.62a72.66,72.66,0,0,0-25.32-16A74.52,74.52,0,0,0,427.05,299.77Z"></path><path class="cls-7" d="M548.13,322.93h-23L516,314.17a103.6,103.6,0,0,0-71.57-28.7H151.8a103.6,103.6,0,0,0-71.57,28.7l-9.17,8.76h-23"></path><polyline class="cls-7" points="398.61 149.24 298.11 149.24 197.61 149.24"></polyline><path class="cls-7" d="M414.68,171.43l-11.3,10.29a40.08,40.08,0,0,1-27,10.45H219.83a40.1,40.1,0,0,1-27-10.45l-11.29-10.29"></path><path class="cls-7" d="M475.52,96.59c.29,14.32,0,29.5-1,45.46a543.59,543.59,0,0,1-9.43,72,40,40,0,0,1-39.17,32.25H170.28A40,40,0,0,1,131.11,214a543.59,543.59,0,0,1-9.43-72c-1-16-1.27-31.14-1-45.47"></path><path class="cls-8" d="M127.64,34.35A84.35,84.35,0,0,1,140.94,7"></path><path class="cls-8" d="M468.59,34.35A84.61,84.61,0,0,0,455.28,7"></path><path class="cls-7" d="M65.6,162.89,35.7,223.31"></path><path class="cls-7" d="M530.62,162.89c10,20.14,20.31,40.65,30.28,60.79"></path><rect class="cls-9" x="260.14" y="29.98" width="75.94" height="8.74"></rect><rect class="cls-3" x="384.04" y="329.13" width="45.49" height="28.07" rx="2.67"></rect><path class="cls-10" d="M414.5,343.16a7.72,7.72,0,1,0-7.72,7.54A7.63,7.63,0,0,0,414.5,343.16Z"></path><rect class="cls-3" x="165.21" y="329.13" width="45.49" height="28.07" rx="2.67"></rect><path class="cls-10" d="M195.67,343.16A7.72,7.72,0,1,0,188,350.7,7.63,7.63,0,0,0,195.67,343.16Z"></path></svg>