<svg id="_ÎÓÈ_1" data-name="—ÎÓÈ_1" xmlns="http://www.w3.org/2000/svg" viewBox="0 0 860.05 270.51"><defs></defs><path class="cls-1" d="M827.56,225.83l-73.93,14.41-618.23-.75-35.15-23.3c1-47.62,39.94-85.64,85.51-86,48-.38,88.75,41.12,86.8,91.29l340.1.64c-2.46-50.93,36.44-93.5,82.94-96.43,50.17-3.17,96.51,40.61,94.51,95.79Z"></path><path class="cls-2" d="M2.42,170.43l3.48-4.87-.41-22.27a12,12,0,0,1,2-6.91l13.33-20,58.51-6.1L95.11,97.73,19.89,85,14.58,74.9l43.56-8.35c2.86.38,8.68,1,8.68,1q33.93-8.85,69.11-19,39.45-11.37,76.73-23.31l-2.07-8A728.76,728.76,0,0,1,503,13.67q-2.4,3.14-4.82,6.26A519.24,519.24,0,0,1,615.14,73.76a53,53,0,0,0,21.57,7.54c4.63.56,9.25,1.24,13.88,1l5.29-2.57,6-2.9c31.59.79,73.74,3.56,121.84,20.25a403.16,403.16,0,0,1,72.81,33.76,109.12,109.12,0,0,1,2.89,17.36c.64,7.61-3.6,55-4.34,60.27-.21,1.53-.44,3-.68,4.51a13,13,0,0,1-11,10.81q-7.79,1.08-15.76,2c-18,2.17-52.08,4.82-52.08,4.82,5.65-37.28-11.34-72.55-41-87.76-2-1-32.52-16-64.13-1.44-31.34,14.48-50,51.75-43.88,91.61l-371.29,1h0v0s8.3-63-37.14-86.78c-32.27-16.86-73.32-4.33-90.81,17.68-17.19,21.62-20,62.82-20.1,63.33-5.66-.17-36.8-1.18-60.27-4.5a61.08,61.08,0,0,1-19-5.46,58.06,58.06,0,0,1-15.43-10.93A57.48,57.48,0,0,1,2,193.12,12.68,12.68,0,0,1,.6,187.27V176.11A9.8,9.8,0,0,1,2.42,170.43Z"></path><path class="cls-3" d="M612.66,87.76,203.45,74a33,33,0,0,1-20.8-8.31l-7.22-6.42a5.52,5.52,0,0,1,1.88-9.35A641.7,641.7,0,0,1,270,26c51.73-9.28,126.49-22.7,214.1.65C514.1,34.68,561.18,51.15,612.66,87.76Z"></path><path class="cls-4" d="M843.91,175.23a14.14,14.14,0,0,1-2.37-10.34,73.4,73.4,0,0,1,8.5-25.33,59.45,59.45,0,0,1,6.3-9,241.24,241.24,0,0,1,1.42,37.53c-.26,6.31-.76,12.32-1.42,18a35.06,35.06,0,0,1-8.71-6.53A41.67,41.67,0,0,1,843.91,175.23Z"></path><path class="cls-4" d="M836.92,189.27l-26-6.15a8.28,8.28,0,0,0-9.81,5.72l-2,6.51a8.43,8.43,0,0,0,7.24,10.89l27.13,2.3a8.3,8.3,0,0,0,8.53-5.65l.87-2.56,0-.09A8.45,8.45,0,0,0,836.92,189.27Z"></path><path class="cls-5" d="M805.62,194.44c0-4.59,1.59-8.31,3.55-8.31s3.54,3.72,3.54,8.31-1.59,8.32-3.54,8.32S805.62,199,805.62,194.44Z"></path><path class="cls-4" d="M636.71,81.3a53,53,0,0,1-21.57-7.54A519.24,519.24,0,0,0,498.22,19.93q2.41-3.12,4.82-6.26c22.85,7.68,47.08,16.74,72.33,27.48,29.41,12.5,56.26,25.59,80.51,38.58l-5.29,2.57C646,82.54,641.34,81.86,636.71,81.3Z"></path><path class="cls-4" d="M399.38,19.49A377.41,377.41,0,0,1,482.67,32,389.73,389.73,0,0,1,593.94,81.66L417.21,75.73C412.3,60.4,403.92,34.15,399.38,19.49Z"></path><path class="cls-4" d="M269.74,31.65l1.21-.23c27.9-5,62.06-11.12,101.29-12.11l4.37,55.05-132-4.43Z"></path><path class="cls-4" d="M252.56,35,226.48,69.32l-22.85-.77a27.51,27.51,0,0,1-17.35-6.93l-7.21-6.5A634.55,634.55,0,0,1,252.56,35Z"></path><path class="cls-4" d="M135.93,48.55q-35.16,10.13-69.11,19s-5.82-.58-8.68-1c25.19-9.71,52-19.23,80.37-28.29,24.86-7.94,48.94-14.89,72.08-21l2.07,8Q175.39,37.15,135.93,48.55Z"></path><path class="cls-3" d="M784,108.85a435.91,435.91,0,0,0-65.3-14.66c-21.63-3.12-39.67-4-62.36-5.14-18.08-.9-33.14-1.19-43.72-1.29"></path><path class="cls-3" d="M792.84,129.39l-37.29,29.74"></path><path class="cls-3" d="M424.84,102c0-1.81,8.75-3.14,19.49-3s19.4,1.79,19.37,3.61-8.75,3.14-19.48,3S424.81,103.81,424.84,102Z"></path><path class="cls-3" d="M224.1,98.69c0-1.81,8.76-3.14,19.49-3S263,97.52,263,99.33s-8.76,3.15-19.49,3S224.07,100.51,224.1,98.69Z"></path><path class="cls-3" d="M385.87,13.7l13.51,66.9c2.52,8.84,4.8,18.2,6.74,28.06a355,355,0,0,1,4.34,107.53"></path><path class="cls-3" d="M598.52,87.76a212.09,212.09,0,0,1,9,34.08c6.86,38.93,1.38,72.3-4.5,94.35H282.2c-22.09-31.65-40.18-57.06-56.9-79.57C218,126.77,206.84,112,210.19,95.16c1.89-9.46,7.72-16.3,12.23-20.5l35.19-46.21"></path><path class="cls-6" d="M783.46,108.82a1.87,1.87,0,0,1,.58,0,172.55,172.55,0,0,1,59.88,26,1.68,1.68,0,0,1-1.09,3.06c-7.42-.73-15.12-1.73-23.07-3a357.87,357.87,0,0,1-69.38-18.8,1.67,1.67,0,0,1,.4-3.22Z"></path><path class="cls-6" d="M79.36,110.27l-58.51,6.1a87.57,87.57,0,0,1-1-31.34l75.22,12.7Z"></path><path class="cls-5" d="M783.46,108.82a1.87,1.87,0,0,1,.58,0,172.55,172.55,0,0,1,59.88,26,1.68,1.68,0,0,1-1.09,3.06c-7.42-.73-15.12-1.73-23.07-3a357.87,357.87,0,0,1-69.38-18.8,1.67,1.67,0,0,1,.4-3.22Z"></path><path class="cls-4" d="M79.36,110.27l-58.51,6.1a87.57,87.57,0,0,1-1-31.34l75.22,12.7Z"></path><path class="cls-7" d="M783.46,108.82a1.87,1.87,0,0,1,.58,0,172.55,172.55,0,0,1,59.88,26,1.68,1.68,0,0,1-1.09,3.06c-7.42-.73-15.12-1.73-23.07-3a357.87,357.87,0,0,1-69.38-18.8,1.67,1.67,0,0,1,.4-3.22Z"></path><path class="cls-7" d="M79.36,110.27l-58.51,6.1a87.57,87.57,0,0,1-1-31.34l75.22,12.7Z"></path><path class="cls-8" d="M121,209.29c0,33.48,27.81,60.62,62.11,60.62s62.11-27.14,62.11-60.62-27.81-60.62-62.11-60.62S121,175.81,121,209.29Z"></path><ellipse class="cls-5" cx="183.15" cy="209.29" rx="47.16" ry="46.03"></ellipse><path class="cls-9" d="M178.22,208.91a4.93,4.93,0,1,0,4.93-4.82A4.88,4.88,0,0,0,178.22,208.91Z"></path><path class="cls-10" d="M183.15,250.89a28.37,28.37,0,0,1-5.28-.35c-.68-.11-1.33-.24-1.94-.39a3.5,3.5,0,0,1-2-1.23l-2.59-3.27a3.46,3.46,0,0,1,0-4.3l9-11.36a3.46,3.46,0,0,1,5.4,0l9.05,11.36a3.44,3.44,0,0,1,0,4.3l-2.59,3.27a3.5,3.5,0,0,1-1.95,1.23c-.61.15-1.26.28-1.94.39A28.37,28.37,0,0,1,183.15,250.89Z"></path><path class="cls-10" d="M143.53,222a27.46,27.46,0,0,1-1.29-5.14c-.1-.68-.17-1.34-.22-2a3.44,3.44,0,0,1,.57-2.23l2.32-3.47a3.45,3.45,0,0,1,4.09-1.31l13.59,5.13a3.46,3.46,0,0,1,1.65,5.15l-8,12.09a3.45,3.45,0,0,1-4.08,1.33l-3.91-1.47a3.55,3.55,0,0,1-1.77-1.47c-.32-.54-.65-1.12-1-1.74A27.82,27.82,0,0,1,143.53,222Z"></path><path class="cls-10" d="M158,175.87a27,27,0,0,1,4.43-2.89c.61-.32,1.21-.61,1.79-.86a3.4,3.4,0,0,1,2.29-.18l4,1.06a3.45,3.45,0,0,1,2.57,3.44L172.69,191a3.45,3.45,0,0,1-4.32,3.24l-14.06-3.65a3.47,3.47,0,0,1-2.59-3.44l.11-4.17a3.48,3.48,0,0,1,.82-2.15c.4-.48.84-1,1.32-1.47A27.25,27.25,0,0,1,158,175.87Z"></path><path class="cls-10" d="M208.17,176a28.49,28.49,0,0,1,4,3.46c.48.5.92,1,1.32,1.48a3.46,3.46,0,0,1,.82,2.15l.1,4.17a3.45,3.45,0,0,1-2.59,3.43l-14.06,3.63a3.46,3.46,0,0,1-4.32-3.25l-.4-14.52a3.46,3.46,0,0,1,2.58-3.43l4-1.06a3.47,3.47,0,0,1,2.29.19c.58.25,1.17.54,1.79.86A28.6,28.6,0,0,1,208.17,176Z"></path><path class="cls-10" d="M223,222.07a27.93,27.93,0,0,1-2,4.91c-.32.62-.64,1.2-1,1.73a3.52,3.52,0,0,1-1.77,1.48l-3.91,1.46a3.46,3.46,0,0,1-4.09-1.33l-8-12.11a3.45,3.45,0,0,1,1.66-5.14L217.49,208a3.46,3.46,0,0,1,4.09,1.32l2.32,3.47a3.45,3.45,0,0,1,.57,2.23c-.05.63-.12,1.28-.23,2A27.55,27.55,0,0,1,223,222.07Z"></path><path class="cls-8" d="M638,209.29c0,33.48,27.81,60.62,62.11,60.62s62.1-27.14,62.1-60.62-27.8-60.62-62.1-60.62S638,175.81,638,209.29Z"></path><ellipse class="cls-5" cx="700.12" cy="209.29" rx="47.16" ry="46.03"></ellipse><path class="cls-9" d="M695.19,208.91a4.93,4.93,0,1,0,4.93-4.82A4.87,4.87,0,0,0,695.19,208.91Z"></path><path class="cls-10" d="M700.12,250.89a28.32,28.32,0,0,1-5.28-.35c-.69-.11-1.33-.24-2-.39a3.47,3.47,0,0,1-1.94-1.23l-2.59-3.27a3.46,3.46,0,0,1,0-4.3l9-11.36a3.47,3.47,0,0,1,5.41,0l9,11.36a3.47,3.47,0,0,1,0,4.3l-2.6,3.27a3.47,3.47,0,0,1-1.94,1.23c-.61.15-1.26.28-1.94.39A28.37,28.37,0,0,1,700.12,250.89Z"></path><path class="cls-10" d="M660.49,222a28.32,28.32,0,0,1-1.28-5.14c-.11-.68-.18-1.34-.23-2a3.5,3.5,0,0,1,.57-2.23l2.33-3.47a3.44,3.44,0,0,1,4.09-1.31l13.58,5.13a3.46,3.46,0,0,1,1.66,5.15l-8,12.09a3.46,3.46,0,0,1-4.09,1.33l-3.91-1.47a3.49,3.49,0,0,1-1.76-1.47c-.33-.54-.65-1.12-1-1.74A27.82,27.82,0,0,1,660.49,222Z"></path><path class="cls-10" d="M675,175.87a27.89,27.89,0,0,1,4.43-2.89c.62-.32,1.21-.61,1.79-.86a3.41,3.41,0,0,1,2.29-.18l4,1.06a3.45,3.45,0,0,1,2.57,3.44L689.65,191a3.45,3.45,0,0,1-4.32,3.24l-14.06-3.65a3.47,3.47,0,0,1-2.58-3.44l.11-4.17a3.48,3.48,0,0,1,.82-2.15c.4-.48.84-1,1.32-1.47A27.22,27.22,0,0,1,675,175.87Z"></path><path class="cls-10" d="M725.13,176a28.51,28.51,0,0,1,4,3.46c.48.5.92,1,1.32,1.48a3.51,3.51,0,0,1,.81,2.15l.1,4.17a3.45,3.45,0,0,1-2.59,3.43l-14.06,3.63a3.45,3.45,0,0,1-4.31-3.25l-.4-14.52a3.43,3.43,0,0,1,2.58-3.43l4-1.06a3.5,3.5,0,0,1,2.3.19c.57.25,1.17.54,1.78.86A27.66,27.66,0,0,1,725.13,176Z"></path><path class="cls-10" d="M739.92,222.07a28.73,28.73,0,0,1-2,4.91c-.32.62-.64,1.2-1,1.73a3.52,3.52,0,0,1-1.77,1.48l-3.91,1.46a3.46,3.46,0,0,1-4.09-1.33l-8-12.11a3.46,3.46,0,0,1,1.67-5.14L734.46,208a3.46,3.46,0,0,1,4.09,1.32l2.32,3.47a3.58,3.58,0,0,1,.57,2.23c-.06.63-.13,1.28-.23,2A29.21,29.21,0,0,1,739.92,222.07Z"></path><path class="cls-3" d="M142,151.9l-23.47-5.14A44.46,44.46,0,0,1,91,127.83L79.36,110.27A120.76,120.76,0,0,1,44,133.73a120.57,120.57,0,0,1-38.51,9.56"></path><path class="cls-3" d="M749.36,114.14C636,105.3,516.63,99.12,391.66,96.6,289,94.54,190,95.1,95.11,97.73"></path><path class="cls-3" d="M110.68,205.13c-15.84-.43-29.55-1.19-40.62-1.95-23.47-1.61-30-2.92-36.45-6.52-4.92-2.77-5.48-4.47-15.24-11.52A211.39,211.39,0,0,0,.6,173.62"></path><path class="cls-3" d="M835.41,129.39c.67-2.09,5.93-7.07,5.93-7.07"></path><path class="cls-10" d="M567.59,81.31,557.76,88l12.06,9.77a6.33,6.33,0,0,0,5.3-1.45,6.13,6.13,0,0,0,1.93-4.36l-9.46-10.61"></path><path class="cls-4" d="M542.77,67.18a50.2,50.2,0,0,1,8.4-.26c7.2.17,15,.35,17.93,4.91,2.27,3.51.61,8-1.51,10.62-4.28,5.32-13.5,7-20,4.7Q545.62,77.1,542.77,67.18Z"></path></svg>